<svg id="Layer_1" data-name="Layer 1" xmlns="http://www.w3.org/2000/svg" viewBox="0 0 92 92.03"><defs>
<style>.cls-1{fill:#969696;}</style></defs><title>hotdog</title>
<path id="hotdog" class="cls-1" d="M89.56,26.22,86,21.58v0c.15-.25.29-.5.42-.75l.07-.15c.12-.24.23-.48.33-.73l.07-.19q.11-.29.21-.59l.09-.29c.06-.2.11-.4.16-.61l.07-.34q.06-.31.11-.63c0-.12,0-.24,0-.37s0-.29,0-.44,0-.34,0-.52v-.45c0-.12,0-.23,0-.35s0-.43,0-.65,0-.21,0-.32-.06-.46-.11-.68l0-.23c0-.2-.09-.4-.15-.6l-.05-.2c-.07-.24-.15-.49-.24-.73l-.07-.19c-.1-.25-.2-.49-.31-.73l-.06-.13c-.12-.24-.24-.48-.38-.71l0-.05c-.14-.24-.3-.48-.46-.72l-.09-.13q-.24-.34-.52-.67L85,8.3c-.19-.22-.39-.44-.6-.66s-.43-.41-.66-.6l-.11-.1q-.33-.27-.67-.52l-.13-.09c-.23-.16-.47-.32-.72-.46l-.05,0c-.23-.14-.47-.26-.71-.38l-.13-.06c-.24-.11-.48-.22-.73-.31L80.25,5l-.73-.24-.2-.05-.6-.15-.23-.05-.68-.11-.32,0-.65,0H76l-.52,0-.44,0-.37,0-.63.11-.34.07-.61.16-.29.09-.59.21-.19.07c-.25.1-.49.21-.73.33l-.15.07c-.26.13-.51.27-.75.42h0L65.79,2.43A12,12,0,0,0,50.07,3.49L3.49,50.08A12,12,0,0,0,2.44,65.81L6,70.44v0c-.15.24-.29.49-.41.75l-.08.16c-.12.24-.23.48-.32.73l-.08.2q-.11.29-.2.58l-.09.3c-.06.2-.11.39-.15.59l-.08.34q-.06.31-.11.62c0,.12,0,.25,0,.37s0,.29,0,.43,0,.35,0,.53v.44c0,.12,0,.24,0,.36s0,.43,0,.65,0,.22,0,.32.06.45.11.68l.05.23q.06.3.15.6l.05.2c.07.24.15.49.24.73l.07.19c.1.25.2.49.31.73l.06.13c.12.24.24.48.38.71l0,.05c.14.24.3.48.46.72l.09.13c.16.23.33.45.52.67l.1.11c.19.22.39.45.6.66s.43.41.66.6l.11.1c.22.18.44.35.67.52l.13.09c.23.16.47.32.72.46l.05,0,.71.38.13.06c.24.11.48.22.73.31l.19.07c.24.09.48.17.73.24l.2.05.6.15.23,0,.68.11.32,0,.65,0H16l.53,0,.43,0,.37,0,.63-.11.34-.07.59-.15.3-.09.58-.2.2-.08.73-.33.16-.08c.25-.13.5-.27.75-.41h0l4.63,3.53a12,12,0,0,0,15.72-1.06L88.51,41.94A12,12,0,0,0,89.56,26.22ZM20.66,82.52l-.3.22L20,83l-.35.21-.29.16a7.86,7.86,0,0,1-1.41.57h0q-.36.1-.72.17h-.07l-.66.1h-.12l-.61,0h-.16l-.57,0-.2,0-.52-.08-.23,0L13.56,84l-.26-.08-.44-.15-.27-.11-.41-.19-.27-.14-.39-.23-.26-.16-.41-.3-.21-.16a7.67,7.67,0,0,1-.58-.52q-.28-.28-.52-.58l-.16-.21c-.1-.13-.21-.27-.3-.41l-.16-.26c-.08-.13-.16-.26-.23-.39l-.14-.27c-.07-.14-.13-.27-.19-.41l-.1-.27c-.05-.15-.11-.29-.15-.44L8,78.46Q8,78.22,7.92,78l0-.23c0-.17-.05-.35-.08-.52l0-.2c0-.19,0-.38,0-.57v-.16q0-.31,0-.61a.64.64,0,0,1,0-.12q0-.33.1-.66a.39.39,0,0,1,0-.08,6.47,6.47,0,0,1,.17-.72h0a7.94,7.94,0,0,1,.57-1.41c.05-.1.11-.19.17-.29s.13-.24.21-.35l.26-.37.22-.3,0,0a7.58,7.58,0,0,1,.53-.59L70.72,10.07a7.93,7.93,0,0,1,.59-.53l0,0,.29-.22L72,9l.34-.2.3-.17a7.92,7.92,0,0,1,1.41-.57h0l.71-.17h.08l.66-.09h.13l.61,0h.17l.57,0,.2,0,.52.08.23,0,.48.12.26.08.44.15.27.11.41.19.27.14.39.23.26.16.41.3.21.16a7.61,7.61,0,0,1,.58.52c.19.19.36.38.52.58l.16.21.3.41.16.26c.08.13.16.26.23.39l.14.27c.07.14.13.27.19.41l.11.27c.05.15.11.29.15.44l.08.26c0,.16.08.32.12.48l0,.24c0,.17.06.35.08.52l0,.2c0,.19,0,.38,0,.57v.17c0,.2,0,.41,0,.61a.6.6,0,0,1,0,.13,6.37,6.37,0,0,1-.1.66.43.43,0,0,1,0,.08q-.07.36-.17.71v0a7.92,7.92,0,0,1-.57,1.41l-.17.3L83,20c-.08.13-.18.25-.27.38s-.14.2-.22.29l0,0q-.25.3-.53.59L21.29,82a7.74,7.74,0,0,1-.59.53Zm-14.74-30L52.5,5.92a8.57,8.57,0,0,1,11.21-.75l4,3.05L8.21,67.73l-3.05-4a8.57,8.57,0,0,1,.76-11.22ZM39.5,86.11a8.57,8.57,0,0,1-11.21.75l-4-3.05,59.5-59.52,3.05,4h0a8.57,8.57,0,0,1-.75,11.22ZM68.07,27.28a13.76,13.76,0,0,0,3.46-6,.66.66,0,0,0-1.28-.3c0,.07-1.63,6.66-8.19,8.19-7.34,1.72-9.23,9-9.3,9.28,0,.06-1.9,6.32-7.63,7.66-6.35,1.49-8.49,8.11-8.64,8.61-.12.32-2.5,6.58-7.77,7.82-6.11,1.43-8.15,7.93-8.23,8.2a.66.66,0,0,0,1.26.38c0-.06,1.91-6.05,7.27-7.3,6.09-1.43,8.61-8.38,8.73-8.7,0-.06,2-6.38,7.69-7.72,6.47-1.51,8.51-8.28,8.6-8.59,0-.07,1.77-6.81,8.33-8.34a11.72,11.72,0,0,0,5.71-3.16Z" transform="translate(0 0)"/></svg>